# xmcd
#
# Track frame offsets: 
#        150
#        8083
#        15242
#        30241
#        43475
#        57981
#        71309
#        81951
#        92067
#        104160
#        116716
#        130249
#        133403
#        138499
#        145576
#        158945
#        169193
#        183567
#        196399
#        207768
#        215944
#        227966
#        239662
#        252311
#
# Disc length: 3510 seconds
#
# Revision: 0
# Processed by: cddbd v1.5.2PL0 Copyright (c) Steve Scherf et al.
# Submitted via: ExactAudioCopy v0.95b3
#
DISCID=6a0db418
DTITLE=The Beatles  - In Memphis 1966 (Misterclaudel)  FLAC
DYEAR=1900
DGENRE=
TTITLE0=Introduction
TTITLE1=Rock And Roll Music
TTITLE2=She's A Woman
TTITLE3=If I Needed Someone
TTITLE4=Day Tripper
TTITLE5=Baby's In Black
TTITLE6=I Feel Fine
TTITLE7=Yesterday
TTITLE8=I Wanna Be Your Man
TTITLE9=Nowhere Man
TTITLE10=Paperback Writer
TTITLE11=Long Tall Sally
TTITLE12=Tuning
TTITLE13=Rock And Roll Music
TTITLE14=She's A Woman
TTITLE15=If I Needed Someone
TTITLE16=Day Tripper
TTITLE17=Baby's In Black
TTITLE18=I Feel Fine
TTITLE19=Yesterday
TTITLE20=I Wanna Be Your Man
TTITLE21=Nowhere Man
TTITLE22=Paperback Writer
TTITLE23=Long Tall Sally
EXTD=
EXTT0=
EXTT1=
EXTT2=
EXTT3=
EXTT4=
EXTT5=
EXTT6=
EXTT7=
EXTT8=
EXTT9=
EXTT10=
EXTT11=
EXTT12=
EXTT13=
EXTT14=
EXTT15=
EXTT16=
EXTT17=
EXTT18=
EXTT19=
EXTT20=
EXTT21=
EXTT22=
EXTT23=
PLAYORDER=
